<svg xmlns="http://www.w3.org/2000/svg" viewBox="0 0 256 256" role="img" aria-label="포실이 thinking"><g stroke="#5B4A32" stroke-width="5" stroke-linejoin="round" stroke-linecap="round"><path d="M127 81q-25-35-43-25-11 25 43 25" fill="#7DBB4F"/><path d="M128 81q14-40 41-31 8 28-41 31" fill="#7DBB4F"/><path d="M127 78v15" fill="none"/><path d="M75 101Q92 86 128 89Q165 85 183 108Q202 136 193 179Q187 207 160 208H95Q67 206 62 177Q52 131 75 101Z" fill="#F7D58B"/><path d="M68 158q-19 4-15 22 3 13 16 8M188 158q19 4 15 22-3 13-16 8" fill="#F7D58B"/><path d="M97 207v8q0 10 12 10h4q10 0 10-13M145 208v7q0 10 12 10h4q10 0 10-13" fill="#F7D58B"/></g><circle cx="89" cy="148" r="10" fill="#FFB3C1"/><circle cx="168" cy="148" r="10" fill="#FFB3C1"/><ellipse cx="102" cy="131" rx="5" ry="8" fill="#5B4A32"/><ellipse cx="154" cy="131" rx="5" ry="8" fill="#5B4A32"/><circle cx="130" cy="153" r="4" fill="#5B4A32"/><circle cx="108" cy="105" r="5" fill="#E8B968" opacity=".65"/><circle cx="162" cy="111" r="4" fill="#E8B968" opacity=".65"/><path d="M179 78q0-15 12-15t12 12q0 9-10 14m0 9v2" stroke="#5B4A32" stroke-width="5" fill="none" stroke-linecap="round"/></svg>
